# xmcd CD database file
#
# Track frame offsets:
#	150
#	40875
#	70200
#	94729
#	124619
#	167779
#	195189
#	236849
#	256350
#
# Disc length: 3779 seconds
#
# Revision: 0
# Processed by: cddbd v1.5.2PL0 Copyright (c) Steve Scherf et al.
# Submitted via: CDex 1.70beta2
#
DISCID=740ec109
DTITLE=Assaf Hakimi - Some Other Day
DYEAR=2006
DGENRE=Jazz
TTITLE0=Zilb
TTITLE1=Guy's Mind
TTITLE2=Sara
TTITLE3=E-Gal Wow Wow
TTITLE4=Beheruz
TTITLE5=Prelude To A Kiss
TTITLE6=Anyway It's Nothing
TTITLE7=Some Other Day
TTITLE8=So Near So Far
EXTD=YEAR: 2006
EXTT0=
EXTT1=
EXTT2=
EXTT3=
EXTT4=
EXTT5=
EXTT6=
EXTT7=
EXTT8=
PLAYORDER=
